<svg xmlns="http://www.w3.org/2000/svg" xmlns:xlink="http://www.w3.org/1999/xlink" viewBox="0 0 919.47 762.94"><defs><style>.cls-1{fill:url(#Безымянный_градиент_2);}</style><linearGradient id="Безымянный_градиент_2" x1="374.78" y1="785.22" x2="593.95" y2="-2.5" gradientUnits="userSpaceOnUse"><stop offset="0" stop-color="#ff8f5a"/><stop offset="0.99" stop-color="#ff2f96"/></linearGradient></defs><g id="Слой_2" data-name="Слой 2"><g id="Слой_1-2" data-name="Слой 1"><path class="cls-1" d="M893.26,513.29C856.6,597,795.59,660,712.46,705.07c-44,22.66-90.32,38.19-149.15,47.73-58.06,9.39-128.68,12.79-203.5,7.94C211.34,751.42,44.94,707.66,9.85,609c-19.89-49-7.41-105.2,17.32-161.74,25.13-56.62,62.5-113.6,101.74-166.11,39.64-52.6,81.15-100.72,123.89-141.53,43.14-40.9,87.51-74.48,142.21-99.9C501.75-10.79,602.48-10.94,686.7,26.93,771.14,64.5,839.06,140.1,885.19,234.05,929.46,328.93,929.42,430.85,893.26,513.29Z"/></g></g></svg>