<svg xmlns="http://www.w3.org/2000/svg" viewBox="0 0 919.47 762.94"><defs><linearGradient id="a" x1="374.78" x2="593.95" y1="785.22" y2="-2.5" gradientUnits="userSpaceOnUse"><stop offset="0" stop-color="#ff8f5a"/><stop offset=".99" stop-color="#ff2f96"/></linearGradient></defs><g data-name="Слой 2"><path fill="url(#a)" d="M893.26 513.29C856.6 597 795.59 660 712.46 705.07c-44 22.66-90.32 38.19-149.15 47.73-58.06 9.39-128.68 12.79-203.5 7.94C211.34 751.42 44.94 707.66 9.85 609c-19.89-49-7.41-105.2 17.32-161.74 25.13-56.62 62.5-113.6 101.74-166.11 39.64-52.6 81.15-100.72 123.89-141.53 43.14-40.9 87.51-74.48 142.21-99.9C501.75-10.79 602.48-10.94 686.7 26.93 771.14 64.5 839.06 140.1 885.19 234.05c44.27 94.88 44.23 196.8 8.07 279.24z" data-name="Слой 1"/></g></svg>