<svg xmlns="http://www.w3.org/2000/svg" fill="none" viewBox="0 0 732 464"><path fill="#6055C4" fill-rule="evenodd" d="M314.475 32.912c84.978-41.862 165.173-41.99 232.22-10.566 67.22 31.169 121.293 93.892 158.022 171.84 35.243 78.723 35.206 163.281 6.422 231.683-29.182 69.422-77.753 121.761-143.941 159.114-35.053 18.808-71.898 31.694-118.738 39.603-46.223 7.793-102.442 10.611-162.005 6.591-118.202-7.734-250.676-44.041-278.613-125.938-15.831-40.666-5.894-87.282 13.79-134.193 20.006-46.98 49.758-94.256 80.996-137.823 31.561-43.637 64.608-83.565 98.631-117.426 34.346-33.93 69.666-61.794 113.216-82.885z" clip-rule="evenodd"/><path fill="url(#paint0_linear)" d="M314.48 32.927c84.977-41.86 165.172-41.989 232.219-10.566 67.219 31.168 121.292 93.888 158.02 171.833 35.244 78.72 35.206 163.275 6.423 231.674-29.182 69.419-77.753 121.756-143.94 159.108-35.053 18.807-71.899 31.693-118.738 39.601-46.223 7.793-102.441 10.611-162.004 6.591-118.201-7.733-250.674-44.039-278.611-125.933-15.832-40.664-5.895-87.278 13.789-134.188 20.006-46.978 49.758-94.252 80.996-137.818 31.561-43.635 64.608-83.561 98.63-117.42C235.61 81.88 270.93 54.017 314.48 32.927z"/><defs><linearGradient id="paint0_linear" x1=".006" x2="124.725" y1="616.768" y2="-7.958" gradientUnits="userSpaceOnUse"><stop stop-color="#FF8F5A"/><stop offset=".99" stop-color="#FF2F96"/></linearGradient></defs></svg>