<svg width="732" height="464" viewBox="0 0 732 464" fill="none" xmlns="http://www.w3.org/2000/svg">
<path fill-rule="evenodd" clip-rule="evenodd" d="M314.475 32.9124C399.453 -8.94964 479.648 -9.07826 546.695 22.3459C613.915 53.5148 667.988 116.238 704.717 194.186C739.96 272.909 739.923 357.467 711.139 425.869C681.957 495.291 633.386 547.63 567.198 584.983C532.145 603.791 495.3 616.677 448.46 624.586C402.237 632.379 346.018 635.197 286.455 631.177C168.253 623.443 35.7794 587.136 7.84229 505.239C-7.98935 464.573 1.94804 417.957 21.6316 371.046C41.6378 324.066 71.3902 276.79 102.628 233.223C134.189 189.586 167.236 149.658 201.259 115.797C235.605 81.8673 270.925 54.0032 314.475 32.9124Z" fill="#6055C4"/>
<path d="M314.48 32.927C399.457 -8.93342 479.652 -9.06204 546.699 22.3609C613.918 53.5286 667.991 116.249 704.719 194.194C739.963 272.914 739.925 357.469 711.142 425.868C681.96 495.287 633.389 547.624 567.202 584.976C532.149 603.783 495.303 616.669 448.464 624.577C402.241 632.37 346.023 635.188 286.46 631.168C168.259 623.435 35.7855 587.129 7.84857 505.235C-7.98299 464.571 1.95435 417.957 21.6378 371.047C41.6439 324.069 71.3962 276.795 102.634 233.229C134.195 189.594 167.242 149.668 201.264 115.809C235.61 81.88 270.93 54.0169 314.48 32.927Z" fill="url(#paint0_linear)"/>
<defs>
<linearGradient id="paint0_linear" x1="0.00633623" y1="616.768" x2="124.725" y2="-7.9584" gradientUnits="userSpaceOnUse">
<stop stop-color="#FF8F5A"/>
<stop offset="0.99" stop-color="#FF2F96"/>
</linearGradient>
</defs>
</svg>
