<svg width="919" height="464" viewBox="0 0 919 464" fill="none" xmlns="http://www.w3.org/2000/svg">
<path d="M394.819 32.771C501.505 -8.89101 602.187 -9.01901 686.362 22.255C770.754 53.275 838.641 115.698 884.752 193.274C928.999 271.621 928.952 355.775 892.815 423.85C856.178 492.94 795.199 545.029 712.103 582.204C668.095 600.922 621.837 613.746 563.031 621.617C505 629.373 434.42 632.178 359.641 628.177C211.243 620.48 44.927 584.346 9.85302 502.841C-10.023 462.369 2.45302 415.976 27.165 369.289C52.282 322.533 89.635 275.483 128.853 232.124C168.477 188.696 209.966 148.959 252.68 115.26C295.8 81.492 340.143 53.761 394.819 32.771Z" fill="url(#paint0_linear)"/>
<defs>
<linearGradient id="paint0_linear" x1="0.00734818" y1="613.845" x2="99.8298" y2="-16.9031" gradientUnits="userSpaceOnUse">
<stop stop-color="#FF8F5A"/>
<stop offset="0.99" stop-color="#FF2F96"/>
</linearGradient>
</defs>
</svg>
